<svg viewBox="0 0 400 225" xmlns="http://www.w3.org/2000/svg">
  <defs>
    <linearGradient id="c061bg" x1="0" y1="0" x2="0" y2="1">
      <stop offset="0" stop-color="#1b1b3a"/>
      <stop offset="1" stop-color="#0c0c18"/>
    </linearGradient>
    <radialGradient id="c061glow" cx="0.5" cy="0.52" r="0.5">
      <stop offset="0" stop-color="#ffd166" stop-opacity="0.55"/>
      <stop offset="0.5" stop-color="#ff5fa2" stop-opacity="0.18"/>
      <stop offset="1" stop-color="#ff5fa2" stop-opacity="0"/>
    </radialGradient>
    <radialGradient id="c061dome" cx="0.38" cy="0.25" r="0.85">
      <stop offset="0" stop-color="#ffc2dc"/>
      <stop offset="0.35" stop-color="#ff5fa2"/>
      <stop offset="1" stop-color="#b3246a"/>
    </radialGradient>
    <linearGradient id="c061base" x1="0" y1="0" x2="0" y2="1">
      <stop offset="0" stop-color="#3a3a6a"/>
      <stop offset="1" stop-color="#1c1c33"/>
    </linearGradient>
    <linearGradient id="c061rim" x1="0" y1="0" x2="1" y2="0">
      <stop offset="0" stop-color="#ffd166"/>
      <stop offset="0.5" stop-color="#fff3c4"/>
      <stop offset="1" stop-color="#e0a020"/>
    </linearGradient>
    <linearGradient id="c061p0" x1="0" y1="0" x2="0" y2="1"><stop offset="0" stop-color="#53e0d8" stop-opacity="0.5"/><stop offset="1" stop-color="#53e0d8" stop-opacity="0.12"/></linearGradient>
    <linearGradient id="c061p1" x1="0" y1="0" x2="0" y2="1"><stop offset="0" stop-color="#ff5fa2" stop-opacity="0.5"/><stop offset="1" stop-color="#ff5fa2" stop-opacity="0.12"/></linearGradient>
    <linearGradient id="c061p2" x1="0" y1="0" x2="0" y2="1"><stop offset="0" stop-color="#ffd166" stop-opacity="0.5"/><stop offset="1" stop-color="#ffd166" stop-opacity="0.12"/></linearGradient>
    <linearGradient id="c061p3" x1="0" y1="0" x2="0" y2="1"><stop offset="0" stop-color="#a06bff" stop-opacity="0.55"/><stop offset="1" stop-color="#a06bff" stop-opacity="0.14"/></linearGradient>
    <filter id="c061blur" x="-30%" y="-30%" width="160%" height="160%"><feGaussianBlur stdDeviation="5"/></filter>
    <filter id="c061soft" x="-30%" y="-30%" width="160%" height="160%"><feGaussianBlur stdDeviation="2"/></filter>
  </defs>

  <rect width="400" height="225" fill="url(#c061bg)"/>
  <g stroke="#2c2c4d" stroke-width="1" opacity="0.5">
    <path d="M0 45H400M0 90H400M0 135H400M0 180H400M50 0V225M100 0V225M150 0V225M200 0V225M250 0V225M300 0V225M350 0V225"/>
  </g>
  <ellipse cx="200" cy="118" rx="190" ry="120" fill="url(#c061glow)"/>

  <!-- speed rays -->
  <g stroke-linecap="round" fill="none">
    <path d="M200 112L96 22" stroke="#53e0d8" stroke-width="3" opacity="0.5"/>
    <path d="M200 112L304 22" stroke="#a06bff" stroke-width="3" opacity="0.55"/>
    <path d="M200 112L70 96" stroke="#ffd166" stroke-width="2" opacity="0.35"/>
    <path d="M200 112L330 96" stroke="#ffd166" stroke-width="2" opacity="0.35"/>
    <path d="M200 112L150 8" stroke="#ff5fa2" stroke-width="2" opacity="0.4"/>
    <path d="M200 112L250 8" stroke="#ff5fa2" stroke-width="2" opacity="0.4"/>
  </g>

  <!-- four player pads -->
  <g stroke-width="2.5">
    <rect x="14" y="14" width="92" height="50" rx="12" fill="url(#c061p2)" stroke="#ffd166"/>
    <rect x="294" y="14" width="92" height="50" rx="12" fill="url(#c061p3)" stroke="#a06bff"/>
    <rect x="14" y="161" width="92" height="50" rx="12" fill="url(#c061p0)" stroke="#53e0d8"/>
    <rect x="294" y="161" width="92" height="50" rx="12" fill="url(#c061p1)" stroke="#ff5fa2"/>
  </g>
  <!-- score lamps -->
  <g>
    <circle cx="34" cy="50" r="5" fill="#ffd166"/><circle cx="50" cy="50" r="5" fill="#ffd166"/><circle cx="66" cy="50" r="5" fill="none" stroke="#ffd166" stroke-opacity="0.5"/><circle cx="82" cy="50" r="5" fill="none" stroke="#ffd166" stroke-opacity="0.5"/>
    <circle cx="314" cy="50" r="5" fill="#a06bff"/><circle cx="330" cy="50" r="5" fill="none" stroke="#a06bff" stroke-opacity="0.6"/><circle cx="346" cy="50" r="5" fill="none" stroke="#a06bff" stroke-opacity="0.6"/><circle cx="362" cy="50" r="5" fill="none" stroke="#a06bff" stroke-opacity="0.6"/>
    <circle cx="34" cy="197" r="5" fill="#53e0d8"/><circle cx="50" cy="197" r="5" fill="#53e0d8"/><circle cx="66" cy="197" r="5" fill="#53e0d8"/><circle cx="82" cy="197" r="5" fill="none" stroke="#53e0d8" stroke-opacity="0.5"/>
    <circle cx="314" cy="197" r="5" fill="#ff5fa2"/><circle cx="330" cy="197" r="5" fill="#ff5fa2"/><circle cx="346" cy="197" r="5" fill="none" stroke="#ff5fa2" stroke-opacity="0.5"/><circle cx="362" cy="197" r="5" fill="none" stroke="#ff5fa2" stroke-opacity="0.5"/>
  </g>
  <!-- pad icons: shapes used as cues -->
  <circle cx="60" cy="30" r="9" fill="#ffd166"/>
  <rect x="331" y="21" width="18" height="18" rx="2" fill="#a06bff"/>
  <path d="M60 167l10 17h-20z" fill="#53e0d8"/>
  <path d="M340 166l3.4 7.6 8.2.8-6.2 5.5 1.8 8.1-7.2-4.2-7.2 4.2 1.8-8.1-6.2-5.5 8.2-.8z" fill="#ff5fa2"/>

  <!-- buzzer -->
  <ellipse cx="200" cy="186" rx="96" ry="16" fill="#000" opacity="0.45" filter="url(#c061blur)"/>
  <path d="M112 150h176l10 30a8 8 0 0 1-8 10H110a8 8 0 0 1-8-10z" fill="url(#c061base)" stroke="#53e0d8" stroke-width="2"/>
  <ellipse cx="200" cy="150" rx="88" ry="15" fill="#26264a" stroke="url(#c061rim)" stroke-width="4"/>
  <ellipse cx="200" cy="128" rx="78" ry="62" fill="#ff5fa2" opacity="0.4" filter="url(#c061blur)"/>
  <path d="M130 146c0-48 31-78 70-78s70 30 70 78c0 9-31 14-70 14s-70-5-70-14z" fill="url(#c061dome)"/>
  <path d="M130 146c0 9 31 14 70 14s70-5 70-14" fill="none" stroke="#8a1a52" stroke-width="2" opacity="0.6"/>
  <ellipse cx="174" cy="93" rx="22" ry="11" fill="#fff" opacity="0.45" transform="rotate(-28 174 93)"/>
  <!-- exclamation mark on the dome -->
  <path d="M192 88h16l-3 38h-10z" fill="#fff8e0"/>
  <circle cx="200" cy="139" r="8" fill="#fff8e0"/>

  <!-- sparks -->
  <g fill="#ffd166">
    <path d="M120 78l6 10 11 2-9 6 2 11-10-6-10 6 3-11-9-7 11-1z" opacity="0.95"/>
    <path d="M284 70l4 8 9 1-7 5 2 9-8-5-8 5 2-9-7-5 9-1z" opacity="0.9"/>
  </g>
  <g fill="#fff" filter="url(#c061soft)" opacity="0.9">
    <circle cx="150" cy="40" r="2.5"/><circle cx="262" cy="34" r="2"/><circle cx="118" cy="128" r="2"/><circle cx="290" cy="124" r="2.5"/>
  </g>
  <g fill="none" stroke-linecap="round" stroke-width="4">
    <path d="M104 108l-18-6" stroke="#53e0d8"/><path d="M100 126l-20 4" stroke="#53e0d8" opacity="0.7"/>
    <path d="M296 108l18-6" stroke="#ffd166"/><path d="M300 126l20 4" stroke="#ffd166" opacity="0.7"/>
    <path d="M200 56V38" stroke="#fff3c4"/><path d="M168 62l-9-15" stroke="#ff5fa2"/><path d="M232 62l9-15" stroke="#ff5fa2"/>
  </g>
</svg>
