<svg viewBox="0 0 400 225" xmlns="http://www.w3.org/2000/svg">
  <defs>
    <linearGradient id="c065bg" x1="0" y1="0" x2="0" y2="1">
      <stop offset="0" stop-color="#1b1b3a"/><stop offset=".6" stop-color="#131322"/><stop offset="1" stop-color="#24103a"/>
    </linearGradient>
    <radialGradient id="c065glow" cx=".5" cy=".5" r=".5">
      <stop offset="0" stop-color="#ff5fa2" stop-opacity=".45"/><stop offset="1" stop-color="#ff5fa2" stop-opacity="0"/>
    </radialGradient>
    <radialGradient id="c065suika" cx=".35" cy=".3" r=".8">
      <stop offset="0" stop-color="#8dee9c"/><stop offset=".45" stop-color="#46c862"/><stop offset="1" stop-color="#146a2c"/>
    </radialGradient>
    <radialGradient id="c065flesh" cx=".5" cy=".4" r=".7">
      <stop offset="0" stop-color="#ff8a98"/><stop offset="1" stop-color="#f23a58"/>
    </radialGradient>
    <radialGradient id="c065orange" cx=".35" cy=".3" r=".8">
      <stop offset="0" stop-color="#ffe0a0"/><stop offset=".4" stop-color="#ffa23a"/><stop offset="1" stop-color="#c95a00"/>
    </radialGradient>
    <radialGradient id="c065apple" cx=".35" cy=".3" r=".8">
      <stop offset="0" stop-color="#ffc0c8"/><stop offset=".4" stop-color="#ff5468"/><stop offset="1" stop-color="#a8102c"/>
    </radialGradient>
    <radialGradient id="c065plum" cx=".35" cy=".3" r=".8">
      <stop offset="0" stop-color="#e0ccff"/><stop offset=".4" stop-color="#a879ff"/><stop offset="1" stop-color="#4a25a8"/>
    </radialGradient>
    <radialGradient id="c065bomb" cx=".35" cy=".3" r=".8">
      <stop offset="0" stop-color="#6a6a8c"/><stop offset=".4" stop-color="#2a2a44"/><stop offset="1" stop-color="#0a0a14"/>
    </radialGradient>
    <linearGradient id="c065blade" x1="0" y1="1" x2="1" y2="0">
      <stop offset="0" stop-color="#53e0d8" stop-opacity="0"/><stop offset=".5" stop-color="#ffffff"/><stop offset="1" stop-color="#53e0d8" stop-opacity="0"/>
    </linearGradient>
    <filter id="c065blur" x="-30%" y="-30%" width="160%" height="160%"><feGaussianBlur stdDeviation="5"/></filter>
    <clipPath id="c065clip"><circle cx="0" cy="0" r="50"/></clipPath>
  </defs>
  <rect width="400" height="225" fill="url(#c065bg)"/>
  <g fill="#9d99c0" opacity=".55">
    <rect x="28" y="24" width="2" height="2"/><rect x="92" y="52" width="2" height="2"/><rect x="340" y="30" width="2" height="2"/><rect x="372" y="88" width="2" height="2"/>
    <rect x="20" y="130" width="2" height="2"/><rect x="250" y="18" width="2" height="2"/><rect x="310" y="190" width="2" height="2"/><rect x="150" y="26" width="2" height="2"/>
    <rect x="60" y="196" width="2" height="2"/><rect x="384" y="160" width="2" height="2"/>
  </g>
  <ellipse cx="200" cy="118" rx="170" ry="100" fill="url(#c065glow)"/>

  <!-- 果汁 -->
  <g fill="#ff5a70">
    <circle cx="150" cy="60" r="6"/><circle cx="236" cy="52" r="4"/><circle cx="262" cy="92" r="7"/><circle cx="128" cy="150" r="5"/>
    <circle cx="276" cy="160" r="4"/><circle cx="170" cy="188" r="6"/><circle cx="246" cy="190" r="3.5"/><circle cx="112" cy="98" r="3.5"/>
    <circle cx="292" cy="124" r="3"/><circle cx="206" cy="38" r="3"/>
  </g>
  <g fill="#ffae3d"><circle cx="72" cy="52" r="4"/><circle cx="96" cy="34" r="2.5"/><circle cx="40" cy="80" r="3"/></g>

  <!-- 切れたスイカ：左半分 -->
  <g transform="translate(176 126) rotate(-38)">
    <g transform="translate(0 -9)">
      <g clip-path="url(#c065clip)"><rect x="-56" y="-56" width="112" height="56" fill="url(#c065suika)"/>
        <g stroke="#0c5022" stroke-width="6" fill="none" opacity=".85">
          <path d="M-34 -56 C-46 -30 -46 -10 -40 0"/><path d="M-10 -56 C-16 -30 -16 -10 -12 0"/><path d="M14 -56 C20 -30 20 -10 16 0"/><path d="M36 -56 C48 -30 48 -10 42 0"/>
        </g>
      </g>
      <ellipse cx="0" cy="0" rx="49" ry="14" fill="url(#c065flesh)" stroke="#e6ffd6" stroke-width="4"/>
      <g fill="#2a1420"><ellipse cx="-26" cy="0" rx="2.6" ry="3.8"/><ellipse cx="-9" cy="2" rx="2.6" ry="3.8"/><ellipse cx="9" cy="-1" rx="2.6" ry="3.8"/><ellipse cx="26" cy="1" rx="2.6" ry="3.8"/></g>
      <ellipse cx="-20" cy="-34" rx="12" ry="5" fill="#fff" opacity=".3" transform="rotate(-25 -20 -34)"/>
    </g>
    <!-- 右半分 -->
    <g transform="translate(6 20) rotate(9)">
      <g clip-path="url(#c065clip)"><rect x="-56" y="0" width="112" height="56" fill="url(#c065suika)"/>
        <g stroke="#0c5022" stroke-width="6" fill="none" opacity=".85">
          <path d="M-40 0 C-46 14 -42 36 -30 56"/><path d="M-12 0 C-16 16 -14 36 -8 56"/><path d="M16 0 C20 16 18 36 12 56"/><path d="M42 0 C48 14 44 36 32 56"/>
        </g>
      </g>
      <ellipse cx="0" cy="0" rx="49" ry="14" fill="url(#c065flesh)" stroke="#e6ffd6" stroke-width="4"/>
      <g fill="#2a1420"><ellipse cx="-24" cy="1" rx="2.6" ry="3.8"/><ellipse cx="-6" cy="-1" rx="2.6" ry="3.8"/><ellipse cx="12" cy="2" rx="2.6" ry="3.8"/><ellipse cx="28" cy="0" rx="2.6" ry="3.8"/></g>
    </g>
  </g>

  <!-- オレンジ -->
  <g transform="translate(66 80)">
    <circle r="27" fill="url(#c065orange)"/>
    <ellipse cx="-9" cy="-11" rx="8" ry="4" fill="#fff" opacity=".4" transform="rotate(-30 -9 -11)"/>
    <path d="M0 -24 l3 4 5 -1 -3 4 3 4 -5 -1 -3 4 -3 -4 -5 1 3 -4 -3 -4 5 1z" fill="#3f9a4a" transform="scale(.7) translate(0 -8)"/>
  </g>
  <!-- りんご -->
  <g transform="translate(322 66) rotate(14)">
    <circle r="27" fill="url(#c065apple)"/>
    <ellipse cx="-9" cy="-11" rx="8" ry="4" fill="#fff" opacity=".4" transform="rotate(-30 -9 -11)"/>
    <path d="M0 -24 q2 -8 6 -11" stroke="#6b4424" stroke-width="3.2" fill="none" stroke-linecap="round"/>
    <ellipse cx="-9" cy="-30" rx="9" ry="4.5" fill="#5fd66a" transform="rotate(25 -9 -30)"/>
  </g>
  <!-- プラム -->
  <g transform="translate(60 168)">
    <circle r="20" fill="url(#c065plum)"/>
    <ellipse cx="-7" cy="-8" rx="6" ry="3" fill="#fff" opacity=".4" transform="rotate(-30 -7 -8)"/>
    <path d="M0 -18 q2 -6 5 -8" stroke="#6b4424" stroke-width="3" fill="none" stroke-linecap="round"/>
  </g>
  <!-- ばくだん -->
  <g transform="translate(332 164)">
    <circle r="33" fill="#ff5fa2" opacity=".18"/>
    <circle r="24" fill="url(#c065bomb)" stroke="#ff5fa2" stroke-width="3"/>
    <rect x="-6" y="-30" width="12" height="8" fill="#3a3a58"/>
    <path d="M0 -30 q7 -8 12 -3" stroke="#c9a86a" stroke-width="3" fill="none" stroke-linecap="round"/>
    <circle cx="13" cy="-34" r="5" fill="#ffd166"/><circle cx="13" cy="-34" r="2.5" fill="#fff"/>
    <path d="M-12 -8 l9 4 M12 -8 l-9 4" stroke="#ff5fa2" stroke-width="3.2" stroke-linecap="round"/>
    <circle cx="-7" cy="1" r="3" fill="#ffe3ef"/><circle cx="7" cy="1" r="3" fill="#ffe3ef"/>
    <path d="M-7 11 l3.5 -3 3.5 3 3.5 -3 3.5 3" stroke="#ffe3ef" stroke-width="2.2" fill="none" stroke-linecap="round" stroke-linejoin="round"/>
  </g>
  <!-- 金のスター -->
  <g transform="translate(262 34)">
    <circle r="16" fill="#ffd166" opacity=".2"/>
    <path d="M0 -12 L3.5 -4 12 -3.5 5.5 2 7.5 10.5 0 6 -7.5 10.5 -5.5 2 -12 -3.5 -3.5 -4Z" fill="#ffd166" stroke="#fff6c9" stroke-width="1.5" stroke-linejoin="round"/>
  </g>

  <!-- やいばの光 -->
  <path d="M30 208 L372 22" stroke="#53e0d8" stroke-width="20" stroke-linecap="round" opacity=".5" filter="url(#c065blur)"/>
  <path d="M30 208 L372 22" stroke="url(#c065blade)" stroke-width="9" stroke-linecap="round"/>
  <path d="M110 164 L300 61" stroke="#ffffff" stroke-width="3.5" stroke-linecap="round"/>
  <g fill="#fff">
    <path d="M356 22 l3 9 9 3 -9 3 -3 9 -3 -9 -9 -3 9 -3z"/>
    <path d="M216 100 l2 6 6 2 -6 2 -2 6 -2 -6 -6 -2 6 -2z" opacity=".9"/>
  </g>
</svg>
