<svg viewBox="0 0 400 225" xmlns="http://www.w3.org/2000/svg">
  <defs>
    <linearGradient id="c069bg" x1="0" y1="0" x2="1" y2="1">
      <stop offset="0" stop-color="#1b1433"/>
      <stop offset="0.55" stop-color="#131322"/>
      <stop offset="1" stop-color="#0b1a2a"/>
    </linearGradient>
    <radialGradient id="c069glow" cx="0.5" cy="0.5" r="0.5">
      <stop offset="0" stop-color="#ff5fa2" stop-opacity="0.55"/>
      <stop offset="1" stop-color="#ff5fa2" stop-opacity="0"/>
    </radialGradient>
    <radialGradient id="c069glow2" cx="0.5" cy="0.5" r="0.5">
      <stop offset="0" stop-color="#53e0d8" stop-opacity="0.45"/>
      <stop offset="1" stop-color="#53e0d8" stop-opacity="0"/>
    </radialGradient>
    <linearGradient id="c069pk" x1="0" y1="0" x2="0" y2="1"><stop offset="0" stop-color="#ff9cc6"/><stop offset="1" stop-color="#ff3f8e"/></linearGradient>
    <linearGradient id="c069cy" x1="0" y1="0" x2="0" y2="1"><stop offset="0" stop-color="#a6fff6"/><stop offset="1" stop-color="#2fc4bb"/></linearGradient>
    <linearGradient id="c069gd" x1="0" y1="0" x2="0" y2="1"><stop offset="0" stop-color="#fff0b8"/><stop offset="1" stop-color="#ffb938"/></linearGradient>
    <linearGradient id="c069vi" x1="0" y1="0" x2="0" y2="1"><stop offset="0" stop-color="#cdb0ff"/><stop offset="1" stop-color="#8650f0"/></linearGradient>
    <linearGradient id="c069bar" x1="0" y1="0" x2="0" y2="1"><stop offset="0" stop-color="#ffffff" stop-opacity="0"/><stop offset="0.5" stop-color="#ffffff" stop-opacity="0.28"/><stop offset="1" stop-color="#ffffff" stop-opacity="0"/></linearGradient>
    <filter id="c069blur" x="-50%" y="-50%" width="200%" height="200%"><feGaussianBlur stdDeviation="4"/></filter>
  </defs>
  <rect width="400" height="225" fill="url(#c069bg)"/>
  <circle cx="110" cy="70" r="120" fill="url(#c069glow)"/>
  <circle cx="320" cy="170" r="120" fill="url(#c069glow2)"/>
  <g fill="#ffffff" opacity="0.6">
    <circle cx="24" cy="22" r="1.2"/><circle cx="371" cy="30" r="1.5"/><circle cx="342" cy="58" r="1"/><circle cx="60" cy="204" r="1.3"/><circle cx="212" cy="16" r="1.1"/><circle cx="386" cy="118" r="1.2"/>
  </g>
  <!-- ステップのマス（8れつ×4だん） -->
  <g transform="translate(46 44) rotate(-4 154 70)">
    <rect x="-10" y="-10" width="328" height="164" rx="14" fill="#161629" stroke="#2c2c4d" stroke-width="2"/>
    <g fill="#23233f">
      <rect x="0" y="0" width="34" height="32" rx="6"/><rect x="39" y="0" width="34" height="32" rx="6"/><rect x="78" y="0" width="34" height="32" rx="6"/><rect x="117" y="0" width="34" height="32" rx="6"/>
      <rect x="0" y="37" width="34" height="32" rx="6"/><rect x="39" y="37" width="34" height="32" rx="6"/><rect x="78" y="37" width="34" height="32" rx="6"/><rect x="117" y="37" width="34" height="32" rx="6"/>
      <rect x="0" y="74" width="34" height="32" rx="6"/><rect x="39" y="74" width="34" height="32" rx="6"/><rect x="78" y="74" width="34" height="32" rx="6"/><rect x="117" y="74" width="34" height="32" rx="6"/>
      <rect x="0" y="111" width="34" height="32" rx="6"/><rect x="39" y="111" width="34" height="32" rx="6"/><rect x="78" y="111" width="34" height="32" rx="6"/><rect x="117" y="111" width="34" height="32" rx="6"/>
    </g>
    <g fill="#1a1a31">
      <rect x="156" y="0" width="34" height="32" rx="6"/><rect x="195" y="0" width="34" height="32" rx="6"/><rect x="234" y="0" width="34" height="32" rx="6"/><rect x="273" y="0" width="34" height="32" rx="6"/>
      <rect x="156" y="37" width="34" height="32" rx="6"/><rect x="195" y="37" width="34" height="32" rx="6"/><rect x="234" y="37" width="34" height="32" rx="6"/><rect x="273" y="37" width="34" height="32" rx="6"/>
      <rect x="156" y="74" width="34" height="32" rx="6"/><rect x="195" y="74" width="34" height="32" rx="6"/><rect x="234" y="74" width="34" height="32" rx="6"/><rect x="273" y="74" width="34" height="32" rx="6"/>
      <rect x="156" y="111" width="34" height="32" rx="6"/><rect x="195" y="111" width="34" height="32" rx="6"/><rect x="234" y="111" width="34" height="32" rx="6"/><rect x="273" y="111" width="34" height="32" rx="6"/>
    </g>
    <!-- ひかる おと -->
    <g filter="url(#c069blur)" opacity="0.8">
      <rect x="0" y="111" width="34" height="32" rx="6" fill="#ff5fa2"/><rect x="156" y="111" width="34" height="32" rx="6" fill="#ff5fa2"/><rect x="78" y="74" width="34" height="32" rx="6" fill="#a06bff"/>
      <rect x="39" y="37" width="34" height="32" rx="6" fill="#53e0d8"/><rect x="195" y="0" width="34" height="32" rx="6" fill="#ffd166"/><rect x="234" y="37" width="34" height="32" rx="6" fill="#53e0d8"/>
    </g>
    <rect x="1" y="112" width="32" height="30" rx="6" fill="url(#c069pk)"/><rect x="157" y="112" width="32" height="30" rx="6" fill="url(#c069pk)"/><rect x="235" y="112" width="32" height="30" rx="6" fill="url(#c069pk)"/>
    <rect x="79" y="75" width="32" height="30" rx="6" fill="url(#c069vi)"/><rect x="274" y="75" width="32" height="30" rx="6" fill="url(#c069vi)"/>
    <rect x="40" y="38" width="32" height="30" rx="6" fill="url(#c069cy)"/><rect x="118" y="38" width="32" height="30" rx="6" fill="url(#c069cy)"/><rect x="235" y="38" width="32" height="30" rx="6" fill="url(#c069cy)"/>
    <rect x="1" y="1" width="32" height="30" rx="6" fill="url(#c069gd)"/><rect x="196" y="1" width="32" height="30" rx="6" fill="url(#c069gd)"/>
    <g fill="#ffffff" opacity="0.45">
      <rect x="5" y="116" width="24" height="7" rx="3"/><rect x="161" y="116" width="24" height="7" rx="3"/><rect x="239" y="116" width="24" height="7" rx="3"/><rect x="83" y="79" width="24" height="7" rx="3"/><rect x="278" y="79" width="24" height="7" rx="3"/>
      <rect x="44" y="42" width="24" height="7" rx="3"/><rect x="122" y="42" width="24" height="7" rx="3"/><rect x="239" y="42" width="24" height="7" rx="3"/><rect x="5" y="5" width="24" height="7" rx="3"/><rect x="200" y="5" width="24" height="7" rx="3"/>
    </g>
    <!-- さいせいバー -->
    <rect x="152" y="-10" width="42" height="164" fill="url(#c069bar)"/>
    <rect x="171" y="-10" width="3" height="164" rx="1.5" fill="#ffffff" opacity="0.85"/>
  </g>
  <!-- とびだす おんぷ -->
  <g fill="#ffd166" stroke="#ffd166" stroke-linecap="round">
    <g transform="translate(318 34) rotate(12)">
      <ellipse cx="0" cy="26" rx="9" ry="7" stroke="none"/><path d="M8 26 V-6 l16 6" fill="none" stroke-width="4"/>
    </g>
  </g>
  <g fill="#53e0d8" stroke="#53e0d8" stroke-linecap="round">
    <g transform="translate(40 28) rotate(-14) scale(0.8)">
      <ellipse cx="0" cy="26" rx="9" ry="7" stroke="none"/><ellipse cx="26" cy="20" rx="9" ry="7" stroke="none"/>
      <path d="M8 26 V-4 L34 -10 V20" fill="none" stroke-width="4"/><path d="M8 -4 L34 -10" fill="none" stroke-width="7"/>
    </g>
  </g>
  <g fill="#ff5fa2" stroke="#ff5fa2" stroke-linecap="round">
    <g transform="translate(356 176) rotate(8) scale(0.7)">
      <ellipse cx="0" cy="26" rx="9" ry="7" stroke="none"/><path d="M8 26 V-6 l14 8" fill="none" stroke-width="4"/>
    </g>
  </g>
  <g fill="#ffffff">
    <path d="M300 96 l3 8 8 3 -8 3 -3 8 -3 -8 -8 -3 8 -3z" opacity="0.9"/>
    <path d="M22 120 l2 6 6 2 -6 2 -2 6 -2 -6 -6 -2 6 -2z" opacity="0.8"/>
    <path d="M250 200 l2 5 5 2 -5 2 -2 5 -2 -5 -5 -2 5 -2z" opacity="0.7"/>
  </g>
</svg>
